{
.appVersion = "983";
copyright = "Copyright 2016 Google Inc. All Rights Reserved.";
customParameters = (
{
name = description;
value = "Designed by Monotype design team.";
},
{
name = license;
value = "This Font Software is licensed under the SIL Open Font License, Version 1.1. This Font Software is distributed on an \"AS IS\" BASIS, WITHOUT WARRANTIES OR CONDITIONS OF ANY KIND, either express or implied. See the SIL Open Font License for the specific language, permissions and limitations governing your use of this Font Software.";
},
{
name = licenseURL;
value = "http://scripts.sil.org/OFL";
},
{
name = vendorID;
value = GOOG;
},
{
name = trademark;
value = "Noto is a trademark of Google Inc.";
},
{
name = fsType;
value = (
);
},
{
name = panose;
value = (
2,
11,
5,
2,
4,
5,
4,
2,
2,
4
);
},
{
name = codePageRanges;
value = (
1252
);
}
);
date = "2016-11-10 14:30:50 +0000";
designer = "Monotype Design Team";
designerURL = "http://www.monotype.com/studio";
disablesNiceNames = 1;
familyName = "Noto Sans Lisu";
fontMaster = (
{
ascender = 2189;
capHeight = 1434;
customParameters = (
{
name = typoAscender;
value = 2189;
},
{
name = typoDescender;
value = -600;
},
{
name = typoLineGap;
value = 0;
},
{
name = winAscent;
value = 2189;
},
{
name = winDescent;
value = 600;
},
{
name = hheaAscender;
value = 2189;
},
{
name = hheaDescender;
value = -600;
},
{
name = underlinePosition;
value = -205;
},
{
name = underlineThickness;
value = 102;
}
);
descender = -600;
id = "C510FE01-3D6B-418B-A43A-334E3CB81CFE";
weightValue = 400;
widthValue = 5;
xHeight = 1024;
}
);
glyphs = (
{
glyphname = .notdef;
lastChange = "2016-11-10 14:30:37 +0000";
layers = (
{
layerId = "C510FE01-3D6B-418B-A43A-334E3CB81CFE";
paths = (
{
closed = 1;
nodes = (
"922 0 LINE",
"922 1462 LINE",
"102 1462 LINE",
"102 0 LINE"
);
},
{
closed = 1;
nodes = (
"201 1364 LINE",
"823 1364 LINE",
"823 98 LINE",
"201 98 LINE"
);
}
);
width = 1024;
}
);
note = .notdef;
},
{
glyphname = apostrophemod;
lastChange = "2016-11-10 14:30:37 +0000";
layers = (
{
layerId = "C510FE01-3D6B-418B-A43A-334E3CB81CFE";
paths = (
{
closed = 1;
nodes = (
"303 953 OFFCURVE",
"410 1125 OFFCURVE",
"410 1348 CURVE SMOOTH",
"410 1435 OFFCURVE",
"359 1485 OFFCURVE",
"275 1485 CURVE SMOOTH",
"195 1485 OFFCURVE",
"150 1436 OFFCURVE",
"150 1348 CURVE SMOOTH",
"150 1260 OFFCURVE",
"196 1208 OFFCURVE",
"275 1208 CURVE",
"290 1209 LINE",
"269 1112 OFFCURVE",
"216 1048 OFFCURVE",
"130 1017 CURVE",
"130 922 LINE"
);
}
);
width = 554;
}
);
note = afii57929;
unicode = 02BC;
},
{
glyphname = macronlowmod;
lastChange = "2016-11-10 14:30:37 +0000";
layers = (
{
layerId = "C510FE01-3D6B-418B-A43A-334E3CB81CFE";
paths = (
{
closed = 1;
nodes = (
"818 0 LINE",
"818 175 LINE",
"150 175 LINE",
"150 0 LINE"
);
}
);
width = 968;
}
);
note = uni02CD;
unicode = 02CD;
},
{
glyphname = uniA4D0;
lastChange = "2016-11-10 14:30:34 +0000";
layers = (
{
layerId = "C510FE01-3D6B-418B-A43A-334E3CB81CFE";
paths = (
{
closed = 1;
nodes = (
"713 0 LINE SMOOTH",
"1033 0 OFFCURVE",
"1221 155 OFFCURVE",
"1221 416 CURVE SMOOTH",
"1221 609 OFFCURVE",
"1118 727 OFFCURVE",
"893 766 CURVE",
"893 776 LINE",
"1074 809 OFFCURVE",
"1171 927 OFFCURVE",
"1171 1100 CURVE SMOOTH",
"1171 1349 OFFCURVE",
"1008 1462 OFFCURVE",
"616 1462 CURVE SMOOTH",
"199 1462 LINE",
"199 0 LINE"
);
},
{
closed = 1;
nodes = (
"383 686 LINE",
"664 686 LINE SMOOTH",
"904 686 OFFCURVE",
"1024 605 OFFCURVE",
"1024 430 CURVE SMOOTH",
"1024 246 OFFCURVE",
"913 156 OFFCURVE",
"678 156 CURVE SMOOTH",
"383 156 LINE"
);
},
{
closed = 1;
nodes = (
"383 1305 LINE",
"625 1305 LINE SMOOTH",
"872 1305 OFFCURVE",
"981 1239 OFFCURVE",
"981 1079 CURVE SMOOTH",
"981 907 OFFCURVE",
"882 840 OFFCURVE",
"653 840 CURVE SMOOTH",
"383 840 LINE"
);
}
);
width = 1331;
}
);
note = uniA4D0;
unicode = A4D0;
},
{
glyphname = uniA4D1;
lastChange = "2016-11-10 14:30:34 +0000";
layers = (
{
layerId = "C510FE01-3D6B-418B-A43A-334E3CB81CFE";
paths = (
{
closed = 1;
nodes = (
"383 0 LINE",
"383 569 LINE",
"551 569 LINE SMOOTH",
"922 569 OFFCURVE",
"1135 733 OFFCURVE",
"1135 1032 CURVE SMOOTH",
"1135 1319 OFFCURVE",
"952 1462 OFFCURVE",
"586 1462 CURVE SMOOTH",
"199 1462 LINE",
"199 0 LINE"
);
},
{
closed = 1;
nodes = (
"383 1305 LINE",
"569 1305 LINE SMOOTH",
"826 1305 OFFCURVE",
"944 1212 OFFCURVE",
"944 1024 CURVE SMOOTH",
"944 816 OFFCURVE",
"821 727 OFFCURVE",
"530 727 CURVE SMOOTH",
"383 727 LINE"
);
}
);
width = 1239;
}
);
note = uniA4D1;
unicode = A4D1;
},
{
glyphname = uniA4D2;
lastChange = "2016-11-10 14:30:34 +0000";
layers = (
{
layerId = "C510FE01-3D6B-418B-A43A-334E3CB81CFE";
paths = (
{
closed = 1;
nodes = (
"1040 0 LINE",
"1040 1462 LINE",
"856 1462 LINE",
"856 893 LINE",
"688 893 LINE SMOOTH",
"317 893 OFFCURVE",
"104 729 OFFCURVE",
"104 430 CURVE SMOOTH",
"104 143 OFFCURVE",
"287 0 OFFCURVE",
"653 0 CURVE SMOOTH"
);
},
{
closed = 1;
nodes = (
"411 157 OFFCURVE",
"295 250 OFFCURVE",
"295 438 CURVE SMOOTH",
"295 646 OFFCURVE",
"418 735 OFFCURVE",
"709 735 CURVE SMOOTH",
"856 735 LINE",
"856 157 LINE",
"670 157 LINE SMOOTH"
);
}
);
width = 1239;
}
);
note = uniA4D2;
unicode = A4D2;
},
{
glyphname = uniA4D3;
lastChange = "2016-11-10 14:30:34 +0000";
layers = (
{
layerId = "C510FE01-3D6B-418B-A43A-334E3CB81CFE";
paths = (
{
closed = 1;
nodes = (
"606 0 LINE SMOOTH",
"1098 0 OFFCURVE",
"1370 262 OFFCURVE",
"1370 745 CURVE SMOOTH",
"1370 1201 OFFCURVE",
"1104 1462 OFFCURVE",
"649 1462 CURVE SMOOTH",
"199 1462 LINE",
"199 0 LINE"
);
},
{
closed = 1;
nodes = (
"383 1305 LINE",
"623 1305 LINE SMOOTH",
"994 1305 OFFCURVE",
"1176 1111 OFFCURVE",
"1176 739 CURVE SMOOTH",
"1176 352 OFFCURVE",
"978 158 OFFCURVE",
"582 158 CURVE SMOOTH",
"383 158 LINE"
);
}
);
width = 1495;
}
);
note = uniA4D3;
unicode = A4D3;
},
{
glyphname = uniA4D4;
lastChange = "2016-11-10 14:30:34 +0000";
layers = (
{
layerId = "C510FE01-3D6B-418B-A43A-334E3CB81CFE";
paths = (
{
closed = 1;
nodes = (
"662 0 LINE",
"662 1300 LINE",
"1116 1300 LINE",
"1116 1462 LINE",
"20 1462 LINE",
"20 1300 LINE",
"477 1300 LINE",
"477 0 LINE"
);
}
);
width = 1139;
}
);
note = uniA4D4;
unicode = A4D4;
},
{
glyphname = uniA4D5;
lastChange = "2016-11-10 14:30:34 +0000";
layers = (
{
layerId = "C510FE01-3D6B-418B-A43A-334E3CB81CFE";
paths = (
{
closed = 1;
nodes = (
"1116 0 LINE",
"1116 162 LINE",
"662 162 LINE",
"662 1462 LINE",
"477 1462 LINE",
"477 162 LINE",
"20 162 LINE",
"20 0 LINE"
);
}
);
width = 1100;
}
);
note = uniA4D5;
unicode = A4D5;
},
{
glyphname = uniA4D6;
lastChange = "2016-11-10 14:30:34 +0000";
layers = (
{
layerId = "C510FE01-3D6B-418B-A43A-334E3CB81CFE";
paths = (
{
closed = 1;
nodes = (
"1036 -20 OFFCURVE",
"1184 6 OFFCURVE",
"1339 55 CURVE",
"1339 772 LINE",
"834 772 LINE",
"834 608 LINE",
"1155 608 LINE",
"1155 174 LINE",
"1062 151 OFFCURVE",
"966 139 OFFCURVE",
"868 139 CURVE SMOOTH",
"509 139 OFFCURVE",
"317 344 OFFCURVE",
"317 731 CURVE SMOOTH",
"317 1096 OFFCURVE",
"524 1321 OFFCURVE",
"872 1321 CURVE SMOOTH",
"995 1321 OFFCURVE",
"1120 1293 OFFCURVE",
"1249 1237 CURVE",
"1319 1397 LINE",
"1184 1454 OFFCURVE",
"1039 1483 OFFCURVE",
"883 1483 CURVE SMOOTH",
"728 1483 OFFCURVE",
"593 1453 OFFCURVE",
"479 1393 CURVE SMOOTH",
"250 1272 OFFCURVE",
"125 1036 OFFCURVE",
"125 731 CURVE SMOOTH",
"125 258 OFFCURVE",
"380 -20 OFFCURVE",
"825 -20 CURVE SMOOTH"
);
}
);
width = 1491;
}
);
note = uniA4D6;
unicode = A4D6;
},
{
glyphname = uniA4D7;
lastChange = "2016-11-10 14:30:34 +0000";
layers = (
{
layerId = "C510FE01-3D6B-418B-A43A-334E3CB81CFE";
paths = (
{
closed = 1;
nodes = (
"383 0 LINE",
"383 567 LINE",
"532 698 LINE",
"1051 0 LINE",
"1268 0 LINE",
"666 825 LINE",
"1245 1462 LINE",
"1030 1462 LINE",
"509 880 LINE",
"383 741 LINE",
"383 1462 LINE",
"199 1462 LINE",
"199 0 LINE"
);
}
);
width = 1268;
}
);
note = uniA4D7;
unicode = A4D7;
},
{
glyphname = uniA4D8;
lastChange = "2016-11-10 14:30:34 +0000";
layers = (
{
layerId = "C510FE01-3D6B-418B-A43A-334E3CB81CFE";
paths = (
{
closed = 1;
nodes = (
"238 0 LINE",
"760 582 LINE",
"885 721 LINE",
"885 0 LINE",
"1069 0 LINE",
"1069 1462 LINE",
"885 1462 LINE",
"885 895 LINE",
"736 764 LINE",
"217 1462 LINE",
"0 1462 LINE",
"602 637 LINE",
"23 0 LINE"
);
}
);
width = 1268;
}
);
note = uniA4D8;
unicode = A4D8;
},
{
glyphname = uniA4D9;
lastChange = "2016-11-10 14:15:21 +0000";
layers = (
{
layerId = "C510FE01-3D6B-418B-A43A-334E3CB81CFE";
paths = (
{
closed = 1;
nodes = (
"437 -20 OFFCURVE",
"573 128 OFFCURVE",
"573 392 CURVE SMOOTH",
"573 1462 LINE",
"388 1462 LINE",
"388 377 LINE SMOOTH",
"388 225 OFFCURVE",
"321 142 OFFCURVE",
"188 142 CURVE SMOOTH",
"137 142 OFFCURVE",
"87 149 OFFCURVE",
"40 162 CURVE",
"40 7 LINE",
"79 -11 OFFCURVE",
"129 -20 OFFCURVE",
"192 -20 CURVE SMOOTH"
);
}
);
width = 759;
}
);
note = uniA4D9;
unicode = A4D9;
},
{
glyphname = uniA4DA;
lastChange = "2016-11-10 14:30:34 +0000";
layers = (
{
layerId = "C510FE01-3D6B-418B-A43A-334E3CB81CFE";
paths = (
{
closed = 1;
nodes = (
"946 -20 OFFCURVE",
"1050 -6 OFFCURVE",
"1174 39 CURVE",
"1174 199 LINE",
"1044 160 OFFCURVE",
"927 141 OFFCURVE",
"823 141 CURVE SMOOTH",
"500 141 OFFCURVE",
"319 354 OFFCURVE",
"319 731 CURVE SMOOTH",
"319 1096 OFFCURVE",
"510 1321 OFFCURVE",
"825 1321 CURVE SMOOTH",
"930 1321 OFFCURVE",
"1040 1294 OFFCURVE",
"1157 1241 CURVE",
"1231 1397 LINE",
"1116 1454 OFFCURVE",
"982 1483 OFFCURVE",
"827 1483 CURVE SMOOTH",
"683 1483 OFFCURVE",
"558 1452 OFFCURVE",
"452 1391 CURVE SMOOTH",
"239 1268 OFFCURVE",
"125 1034 OFFCURVE",
"125 733 CURVE SMOOTH",
"125 253 OFFCURVE",
"366 -20 OFFCURVE",
"797 -20 CURVE SMOOTH"
);
}
);
width = 1294;
}
);
note = uniA4DA;
unicode = A4DA;
},
{
glyphname = uniA4DB;
lastChange = "2016-11-10 14:30:34 +0000";
layers = (
{
layerId = "C510FE01-3D6B-418B-A43A-334E3CB81CFE";
paths = (
{
closed = 1;
nodes = (
"610 -20 OFFCURVE",
"734 11 OFFCURVE",
"841 72 CURVE SMOOTH",
"1054 194 OFFCURVE",
"1169 427 OFFCURVE",
"1169 730 CURVE SMOOTH",
"1169 1210 OFFCURVE",
"928 1483 OFFCURVE",
"497 1483 CURVE SMOOTH",
"348 1483 OFFCURVE",
"244 1469 OFFCURVE",
"120 1424 CURVE",
"120 1264 LINE",
"250 1303 OFFCURVE",
"367 1322 OFFCURVE",
"471 1322 CURVE SMOOTH",
"794 1322 OFFCURVE",
"975 1109 OFFCURVE",
"975 732 CURVE SMOOTH",
"975 367 OFFCURVE",
"784 142 OFFCURVE",
"469 142 CURVE SMOOTH",
"364 142 OFFCURVE",
"254 169 OFFCURVE",
"137 222 CURVE",
"63 66 LINE",
"178 9 OFFCURVE",
"312 -20 OFFCURVE",
"467 -20 CURVE SMOOTH"
);
}
);
width = 1294;
}
);
note = uniA4DB;
unicode = A4DB;
},
{
glyphname = uniA4DC;
lastChange = "2016-11-10 14:30:34 +0000";
layers = (
{
layerId = "C510FE01-3D6B-418B-A43A-334E3CB81CFE";
paths = (
{
closed = 1;
nodes = (
"1092 0 LINE",
"1092 164 LINE",
"301 164 LINE",
"1071 1323 LINE",
"1071 1462 LINE",
"102 1462 LINE",
"102 1298 LINE",
"848 1298 LINE",
"78 139 LINE",
"78 0 LINE"
);
}
);
width = 1171;
}
);
note = uniA4DC;
unicode = A4DC;
},
{
glyphname = uniA4DD;
lastChange = "2016-11-10 14:30:34 +0000";
layers = (
{
layerId = "C510FE01-3D6B-418B-A43A-334E3CB81CFE";
paths = (
{
closed = 1;
nodes = (
"383 0 LINE",
"383 621 LINE",
"977 621 LINE",
"977 782 LINE",
"383 782 LINE",
"383 1300 LINE",
"1016 1300 LINE",
"1016 1462 LINE",
"199 1462 LINE",
"199 0 LINE"
);
}
);
width = 1063;
}
);
note = uniA4DD;
unicode = A4DD;
},
{
glyphname = uniA4DE;
lastChange = "2016-11-10 14:30:34 +0000";
layers = (
{
layerId = "C510FE01-3D6B-418B-A43A-334E3CB81CFE";
paths = (
{
closed = 1;
nodes = (
"864 0 LINE",
"864 1462 LINE",
"680 1462 LINE",
"680 841 LINE",
"86 841 LINE",
"86 680 LINE",
"680 680 LINE",
"680 162 LINE",
"47 162 LINE",
"47 0 LINE"
);
}
);
width = 1063;
}
);
note = uniA4DE;
unicode = A4DE;
},
{
glyphname = uniA4DF;
lastChange = "2016-11-10 14:30:34 +0000";
layers = (
{
layerId = "C510FE01-3D6B-418B-A43A-334E3CB81CFE";
paths = (
{
closed = 1;
nodes = (
"369 0 LINE",
"369 887 LINE SMOOTH",
"369 1044 OFFCURVE",
"364 1175 OFFCURVE",
"354 1282 CURVE",
"362 1282 LINE",
"844 0 LINE",
"995 0 LINE",
"1483 1280 LINE",
"1491 1280 LINE",
"1482 1126 OFFCURVE",
"1477 999 OFFCURVE",
"1477 899 CURVE SMOOTH",
"1477 0 LINE",
"1659 0 LINE",
"1659 1462 LINE",
"1389 1462 LINE",
"930 264 LINE",
"922 264 LINE",
"471 1462 LINE",
"199 1462 LINE",
"199 0 LINE"
);
}
);
width = 1858;
}
);
note = uniA4DF;
unicode = A4DF;
},
{
glyphname = uniA4E0;
lastChange = "2016-11-10 14:30:34 +0000";
layers = (
{
layerId = "C510FE01-3D6B-418B-A43A-334E3CB81CFE";
paths = (
{
closed = 1;
nodes = (
"369 0 LINE",
"369 817 LINE SMOOTH",
"369 906 OFFCURVE",
"365 1012 OFFCURVE",
"357 1133 CURVE SMOOTH",
"352 1214 LINE",
"360 1214 LINE",
"1143 0 LINE",
"1358 0 LINE",
"1358 1462 LINE",
"1186 1462 LINE",
"1186 637 LINE SMOOTH",
"1186 549 OFFCURVE",
"1197 284 OFFCURVE",
"1200 252 CURVE",
"1192 252 LINE",
"937 649 LINE",
"457 1391 LINE",
"412 1462 LINE",
"199 1462 LINE",
"199 0 LINE"
);
}
);
width = 1556;
}
);
note = uniA4E0;
unicode = A4E0;
},
{
glyphname = uniA4E1;
lastChange = "2016-11-10 14:30:34 +0000";
layers = (
{
layerId = "C510FE01-3D6B-418B-A43A-334E3CB81CFE";
paths = (
{
closed = 1;
nodes = (
"1022 0 LINE",
"1022 164 LINE",
"383 164 LINE",
"383 1462 LINE",
"199 1462 LINE",
"199 0 LINE"
);
}
);
width = 1073;
}
);
note = uniA4E1;
unicode = A4E1;
},
{
glyphname = uniA4E2;
lastChange = "2016-11-10 14:30:34 +0000";
layers = (
{
layerId = "C510FE01-3D6B-418B-A43A-334E3CB81CFE";
paths = (
{
closed = 1;
nodes = (
"834 -20 OFFCURVE",
"1028 136 OFFCURVE",
"1028 391 CURVE SMOOTH",
"1028 459 OFFCURVE",
"1015 518 OFFCURVE",
"990 567 CURVE SMOOTH",
"939 665 OFFCURVE",
"846 733 OFFCURVE",
"629 813 CURVE SMOOTH",
"538 846 OFFCURVE",
"472 876 OFFCURVE",
"430 902 CURVE SMOOTH",
"345 954 OFFCURVE",
"309 1012 OFFCURVE",
"309 1108 CURVE SMOOTH",
"309 1243 OFFCURVE",
"413 1321 OFFCURVE",
"586 1321 CURVE SMOOTH",
"694 1321 OFFCURVE",
"811 1295 OFFCURVE",
"936 1243 CURVE",
"993 1401 LINE",
"870 1456 OFFCURVE",
"736 1483 OFFCURVE",
"590 1483 CURVE SMOOTH",
"310 1483 OFFCURVE",
"123 1338 OFFCURVE",
"123 1110 CURVE SMOOTH",
"123 898 OFFCURVE",
"229 775 OFFCURVE",
"500 676 CURVE SMOOTH",
"595 641 OFFCURVE",
"667 610 OFFCURVE",
"714 583 CURVE SMOOTH",
"808 528 OFFCURVE",
"844 472 OFFCURVE",
"844 375 CURVE SMOOTH",
"844 228 OFFCURVE",
"733 139 OFFCURVE",
"514 139 CURVE SMOOTH",
"386 139 OFFCURVE",
"228 172 OFFCURVE",
"104 225 CURVE",
"104 49 LINE",
"199 3 OFFCURVE",
"333 -20 OFFCURVE",
"506 -20 CURVE SMOOTH"
);
}
);
width = 1124;
}
);
note = uniA4E2;
unicode = A4E2;
},
{
glyphname = uniA4E3;
lastChange = "2016-11-10 14:30:34 +0000";
layers = (
{
layerId = "C510FE01-3D6B-418B-A43A-334E3CB81CFE";
paths = (
{
closed = 1;
nodes = (
"383 0 LINE",
"383 604 LINE",
"674 604 LINE",
"1028 0 LINE",
"1243 0 LINE",
"842 655 LINE",
"1037 722 OFFCURVE",
"1135 853 OFFCURVE",
"1135 1047 CURVE SMOOTH",
"1135 1324 OFFCURVE",
"965 1462 OFFCURVE",
"602 1462 CURVE SMOOTH",
"199 1462 LINE",
"199 0 LINE"
);
},
{
closed = 1;
nodes = (
"383 1303 LINE",
"592 1303 LINE SMOOTH",
"840 1303 OFFCURVE",
"944 1222 OFFCURVE",
"944 1038 CURVE SMOOTH",
"944 854 OFFCURVE",
"839 760 OFFCURVE",
"602 760 CURVE SMOOTH",
"383 760 LINE"
);
}
);
width = 1274;
}
);
note = uniA4E3;
unicode = A4E3;
},
{
glyphname = uniA4E4;
lastChange = "2016-11-10 14:30:34 +0000";
layers = (
{
layerId = "C510FE01-3D6B-418B-A43A-334E3CB81CFE";
paths = (
{
closed = 1;
nodes = (
"1075 0 LINE",
"1075 1462 LINE",
"891 1462 LINE",
"891 858 LINE",
"600 858 LINE",
"246 1462 LINE",
"31 1462 LINE",
"432 807 LINE",
"237 736 OFFCURVE",
"139 605 OFFCURVE",
"139 415 CURVE SMOOTH",
"139 136 OFFCURVE",
"309 0 OFFCURVE",
"672 0 CURVE SMOOTH"
);
},
{
closed = 1;
nodes = (
"434 159 OFFCURVE",
"330 240 OFFCURVE",
"330 424 CURVE SMOOTH",
"330 608 OFFCURVE",
"433 702 OFFCURVE",
"672 702 CURVE SMOOTH",
"891 702 LINE",
"891 159 LINE",
"682 159 LINE SMOOTH"
);
}
);
width = 1274;
}
);
note = uniA4E4;
unicode = A4E4;
},
{
glyphname = uniA4E5;
lastChange = "2016-11-10 14:30:34 +0000";
layers = (
{
layerId = "C510FE01-3D6B-418B-A43A-334E3CB81CFE";
paths = (
{
closed = 1;
nodes = (
"195 0 LINE",
"522 934 LINE SMOOTH",
"567 1065 OFFCURVE",
"598 1173 OFFCURVE",
"615 1257 CURVE",
"634 1163 OFFCURVE",
"665 1057 OFFCURVE",
"707 938 CURVE SMOOTH",
"1036 0 LINE",
"1229 0 LINE",
"707 1462 LINE",
"522 1462 LINE",
"0 0 LINE"
);
}
);
width = 1229;
}
);
note = uniA4E5;
unicode = A4E5;
},
{
glyphname = uniA4E6;
lastChange = "2016-11-10 14:15:21 +0000";
layers = (
{
layerId = "C510FE01-3D6B-418B-A43A-334E3CB81CFE";
paths = (
{
closed = 1;
nodes = (
"707 0 LINE",
"1229 1462 LINE",
"1034 1462 LINE",
"707 528 LINE SMOOTH",
"662 397 OFFCURVE",
"631 289 OFFCURVE",
"614 205 CURVE",
"595 299 OFFCURVE",
"564 405 OFFCURVE",
"522 524 CURVE SMOOTH",
"193 1462 LINE",
"0 1462 LINE",
"522 0 LINE"
);
}
);
width = 1229;
}
);
note = uniA4E6;
unicode = A4E6;
},
{
glyphname = uniA4E7;
lastChange = "2016-11-10 14:30:34 +0000";
layers = (
{
layerId = "C510FE01-3D6B-418B-A43A-334E3CB81CFE";
paths = (
{
closed = 1;
nodes = (
"383 0 LINE",
"383 682 LINE",
"1133 682 LINE",
"1133 0 LINE",
"1317 0 LINE",
"1317 1462 LINE",
"1133 1462 LINE",
"1133 844 LINE",
"383 844 LINE",
"383 1462 LINE",
"199 1462 LINE",
"199 0 LINE"
);
}
);
width = 1518;
}
);
note = uniA4E7;
unicode = A4E7;
},
{
glyphname = uniA4E8;
lastChange = "2016-11-10 14:30:34 +0000";
layers = (
{
layerId = "C510FE01-3D6B-418B-A43A-334E3CB81CFE";
paths = (
{
closed = 1;
nodes = (
"763 -20 OFFCURVE",
"898 10 OFFCURVE",
"1013 71 CURVE SMOOTH",
"1241 191 OFFCURVE",
"1366 427 OFFCURVE",
"1366 732 CURVE SMOOTH",
"1366 1205 OFFCURVE",
"1111 1483 OFFCURVE",
"666 1483 CURVE SMOOTH",
"455 1483 OFFCURVE",
"307 1459 OFFCURVE",
"152 1408 CURVE",
"152 691 LINE",
"657 691 LINE",
"657 855 LINE",
"336 855 LINE",
"336 1289 LINE",
"429 1312 OFFCURVE",
"525 1324 OFFCURVE",
"623 1324 CURVE SMOOTH",
"982 1324 OFFCURVE",
"1174 1119 OFFCURVE",
"1174 732 CURVE SMOOTH",
"1174 364 OFFCURVE",
"964 142 OFFCURVE",
"619 142 CURVE SMOOTH",
"496 142 OFFCURVE",
"371 170 OFFCURVE",
"242 226 CURVE",
"172 66 LINE",
"307 9 OFFCURVE",
"452 -20 OFFCURVE",
"608 -20 CURVE SMOOTH"
);
}
);
width = 1491;
}
);
note = uniA4E8;
unicode = A4E8;
},
{
glyphname = uniA4E9;
lastChange = "2016-11-10 14:30:34 +0000";
layers = (
{
layerId = "C510FE01-3D6B-418B-A43A-334E3CB81CFE";
paths = (
{
closed = 1;
nodes = (
"371 0 LINE",
"371 1085 LINE SMOOTH",
"371 1237 OFFCURVE",
"438 1320 OFFCURVE",
"571 1320 CURVE SMOOTH",
"622 1320 OFFCURVE",
"672 1313 OFFCURVE",
"719 1300 CURVE",
"719 1455 LINE",
"680 1473 OFFCURVE",
"630 1482 OFFCURVE",
"567 1482 CURVE SMOOTH",
"322 1482 OFFCURVE",
"186 1334 OFFCURVE",
"186 1070 CURVE SMOOTH",
"186 0 LINE"
);
}
);
width = 759;
}
);
note = uniA4E9;
unicode = A4E9;
},
{
glyphname = uniA4EA;
lastChange = "2016-11-10 14:30:34 +0000";
layers = (
{
layerId = "C510FE01-3D6B-418B-A43A-334E3CB81CFE";
paths = (
{
closed = 1;
nodes = (
"598 0 LINE",
"874 952 LINE SMOOTH",
"910 1072 OFFCURVE",
"933 1170 OFFCURVE",
"944 1247 CURVE",
"951 1197 OFFCURVE",
"976 1101 OFFCURVE",
"1018 958 CURVE SMOOTH",
"1303 0 LINE",
"1489 0 LINE",
"1878 1462 LINE",
"1686 1462 LINE",
"1460 571 LINE SMOOTH",
"1423 430 OFFCURVE",
"1400 313 OFFCURVE",
"1389 221 CURVE",
"1370 340 OFFCURVE",
"1344 458 OFFCURVE",
"1309 573 CURVE SMOOTH",
"1040 1462 LINE",
"850 1462 LINE",
"592 580 LINE SMOOTH",
"555 450 OFFCURVE",
"529 330 OFFCURVE",
"514 221 CURVE",
"498 336 OFFCURVE",
"475 452 OFFCURVE",
"444 569 CURVE SMOOTH",
"217 1462 LINE",
"25 1462 LINE",
"412 0 LINE"
);
}
);
width = 1905;
}
);
note = uniA4EA;
unicode = A4EA;
},
{
glyphname = uniA4EB;
lastChange = "2016-11-10 14:30:34 +0000";
layers = (
{
layerId = "C510FE01-3D6B-418B-A43A-334E3CB81CFE";
paths = (
{
closed = 1;
nodes = (
"203 0 LINE",
"596 635 LINE",
"983 0 LINE",
"1192 0 LINE",
"705 766 LINE",
"1157 1462 LINE",
"963 1462 LINE",
"602 889 LINE",
"244 1462 LINE",
"39 1462 LINE",
"494 762 LINE",
"8 0 LINE"
);
}
);
width = 1200;
}
);
note = uniA4EB;
unicode = A4EB;
},
{
glyphname = uniA4EC;
lastChange = "2016-11-10 14:30:34 +0000";
layers = (
{
layerId = "C510FE01-3D6B-418B-A43A-334E3CB81CFE";
paths = (
{
closed = 1;
nodes = (
"672 0 LINE",
"672 567 LINE",
"1159 1462 LINE",
"961 1462 LINE",
"580 743 LINE",
"201 1462 LINE",
"0 1462 LINE",
"487 559 LINE",
"487 0 LINE"
);
}
);
width = 1159;
}
);
note = uniA4EC;
unicode = A4EC;
},
{
glyphname = uniA4ED;
lastChange = "2016-11-10 14:30:34 +0000";
layers = (
{
layerId = "C510FE01-3D6B-418B-A43A-334E3CB81CFE";
paths = (
{
closed = 1;
nodes = (
"1132 0 LINE",
"1132 1462 LINE",
"715 1462 LINE SMOOTH",
"322 1462 OFFCURVE",
"160 1349 OFFCURVE",
"160 1100 CURVE SMOOTH",
"160 927 OFFCURVE",
"257 809 OFFCURVE",
"438 776 CURVE",
"438 766 LINE",
"213 727 OFFCURVE",
"110 608 OFFCURVE",
"110 416 CURVE SMOOTH",
"110 155 OFFCURVE",
"299 0 OFFCURVE",
"618 0 CURVE SMOOTH"
);
},
{
closed = 1;
nodes = (
"421 156 OFFCURVE",
"307 245 OFFCURVE",
"307 430 CURVE SMOOTH",
"307 603 OFFCURVE",
"426 686 OFFCURVE",
"667 686 CURVE SMOOTH",
"948 686 LINE",
"948 156 LINE",
"653 156 LINE SMOOTH"
);
},
{
closed = 1;
nodes = (
"447 840 OFFCURVE",
"350 907 OFFCURVE",
"350 1079 CURVE SMOOTH",
"350 1239 OFFCURVE",
"459 1305 OFFCURVE",
"706 1305 CURVE SMOOTH",
"948 1305 LINE",
"948 840 LINE",
"678 840 LINE SMOOTH"
);
}
);
width = 1331;
}
);
note = uniA4ED;
unicode = A4ED;
},
{
glyphname = uniA4EE;
lastChange = "2016-11-10 14:30:34 +0000";
layers = (
{
layerId = "C510FE01-3D6B-418B-A43A-334E3CB81CFE";
paths = (
{
closed = 1;
nodes = (
"186 0 LINE",
"360 453 LINE",
"940 453 LINE",
"1116 0 LINE",
"1307 0 LINE",
"737 1468 LINE",
"571 1468 LINE",
"0 0 LINE"
);
},
{
closed = 1;
nodes = (
"588 1059 LINE",
"610 1125 OFFCURVE",
"631 1198 OFFCURVE",
"651 1278 CURVE",
"721 1059 LINE",
"885 616 LINE",
"422 616 LINE"
);
}
);
width = 1309;
}
);
note = uniA4EE;
unicode = A4EE;
},
{
glyphname = uniA4EF;
lastChange = "2016-11-10 14:30:34 +0000";
layers = (
{
layerId = "C510FE01-3D6B-418B-A43A-334E3CB81CFE";
paths = (
{
closed = 1;
nodes = (
"736 0 LINE",
"1307 1468 LINE",
"1121 1468 LINE",
"947 1015 LINE",
"367 1015 LINE",
"191 1468 LINE",
"0 1468 LINE",
"570 0 LINE"
);
},
{
closed = 1;
nodes = (
"586 409 LINE",
"422 852 LINE",
"885 852 LINE",
"719 409 LINE",
"691 325 OFFCURVE",
"670 252 OFFCURVE",
"656 190 CURVE"
);
}
);
width = 1307;
}
);
note = uniA4EF;
unicode = A4EF;
},
{
glyphname = uniA4F0;
lastChange = "2016-11-10 14:30:34 +0000";
layers = (
{
layerId = "C510FE01-3D6B-418B-A43A-334E3CB81CFE";
paths = (
{
closed = 1;
nodes = (
"1016 0 LINE",
"1016 162 LINE",
"383 162 LINE",
"383 684 LINE",
"979 684 LINE",
"979 844 LINE",
"383 844 LINE",
"383 1300 LINE",
"1016 1300 LINE",
"1016 1462 LINE",
"199 1462 LINE",
"199 0 LINE"
);
}
);
width = 1139;
}
);
note = uniA4F0;
unicode = A4F0;
},
{
glyphname = uniA4F1;
lastChange = "2016-11-10 14:15:21 +0000";
layers = (
{
layerId = "C510FE01-3D6B-418B-A43A-334E3CB81CFE";
paths = (
{
closed = 1;
nodes = (
"940 0 LINE",
"940 1462 LINE",
"123 1462 LINE",
"123 1300 LINE",
"756 1300 LINE",
"756 844 LINE",
"160 844 LINE",
"160 684 LINE",
"756 684 LINE",
"756 162 LINE",
"123 162 LINE",
"123 0 LINE"
);
}
);
width = 1139;
}
);
note = uniA4F1;
unicode = A4F1;
},
{
glyphname = uniA4F2;
lastChange = "2016-11-10 14:30:34 +0000";
layers = (
{
layerId = "C510FE01-3D6B-418B-A43A-334E3CB81CFE";
paths = (
{
closed = 1;
nodes = (
"384 0 LINE",
"384 1463 LINE",
"200 1463 LINE",
"200 0 LINE"
);
}
);
width = 584;
}
);
note = uniA4F2;
unicode = A4F2;
},
{
glyphname = uniA4F3;
lastChange = "2016-11-10 14:30:34 +0000";
layers = (
{
layerId = "C510FE01-3D6B-418B-A43A-334E3CB81CFE";
paths = (
{
closed = 1;
nodes = (
"1226 -20 OFFCURVE",
"1475 265 OFFCURVE",
"1475 733 CURVE SMOOTH",
"1475 1204 OFFCURVE",
"1227 1485 OFFCURVE",
"803 1485 CURVE SMOOTH",
"367 1485 OFFCURVE",
"125 1211 OFFCURVE",
"125 735 CURVE SMOOTH",
"125 255 OFFCURVE",
"370 -20 OFFCURVE",
"801 -20 CURVE SMOOTH"
);
},
{
closed = 1;
nodes = (
"486 139 OFFCURVE",
"319 346 OFFCURVE",
"319 733 CURVE SMOOTH",
"319 1118 OFFCURVE",
"486 1323 OFFCURVE",
"803 1323 CURVE SMOOTH",
"1116 1323 OFFCURVE",
"1280 1124 OFFCURVE",
"1280 733 CURVE SMOOTH",
"1280 341 OFFCURVE",
"1114 139 OFFCURVE",
"801 139 CURVE SMOOTH"
);
}
);
width = 1599;
}
);
note = uniA4F3;
unicode = A4F3;
},
{
glyphname = uniA4F4;
lastChange = "2016-11-10 14:30:34 +0000";
layers = (
{
layerId = "C510FE01-3D6B-418B-A43A-334E3CB81CFE";
paths = (
{
closed = 1;
nodes = (
"1098 -20 OFFCURVE",
"1311 183 OFFCURVE",
"1311 516 CURVE SMOOTH",
"1311 1462 LINE",
"1128 1462 LINE",
"1128 516 LINE SMOOTH",
"1128 272 OFFCURVE",
"993 139 OFFCURVE",
"752 139 CURVE SMOOTH",
"496 139 OFFCURVE",
"369 275 OFFCURVE",
"369 514 CURVE SMOOTH",
"369 1462 LINE",
"184 1462 LINE",
"184 520 LINE SMOOTH",
"184 185 OFFCURVE",
"388 -20 OFFCURVE",
"741 -20 CURVE SMOOTH"
);
}
);
width = 1497;
}
);
note = uniA4F4;
unicode = A4F4;
},
{
glyphname = uniA4F5;
lastChange = "2016-11-10 14:30:34 +0000";
layers = (
{
layerId = "C510FE01-3D6B-418B-A43A-334E3CB81CFE";
paths = (
{
closed = 1;
nodes = (
"369 -20 LINE",
"369 928 LINE SMOOTH",
"369 1172 OFFCURVE",
"500 1303 OFFCURVE",
"752 1303 CURVE SMOOTH",
"993 1303 OFFCURVE",
"1128 1170 OFFCURVE",
"1128 926 CURVE SMOOTH",
"1128 -20 LINE",
"1311 -20 LINE",
"1311 926 LINE SMOOTH",
"1311 1259 OFFCURVE",
"1098 1462 OFFCURVE",
"741 1462 CURVE SMOOTH",
"389 1462 OFFCURVE",
"184 1258 OFFCURVE",
"184 922 CURVE SMOOTH",
"184 -20 LINE"
);
}
);
width = 1497;
}
);
note = uniA4F5;
unicode = A4F5;
},
{
glyphname = uniA4F6;
lastChange = "2016-11-10 14:30:34 +0000";
layers = (
{
layerId = "C510FE01-3D6B-418B-A43A-334E3CB81CFE";
paths = (
{
closed = 1;
nodes = (
"874 0 LINE",
"874 1462 LINE",
"51 1462 LINE",
"51 1298 LINE",
"690 1298 LINE",
"690 0 LINE"
);
}
);
width = 1073;
}
);
note = uniA4F6;
unicode = A4F6;
},
{
glyphname = uniA4F7;
lastChange = "2016-11-10 14:30:34 +0000";
layers = (
{
layerId = "C510FE01-3D6B-418B-A43A-334E3CB81CFE";
paths = (
{
closed = 1;
nodes = (
"1296 0 LINE",
"1296 1462 LINE",
"846 1462 LINE SMOOTH",
"390 1462 OFFCURVE",
"125 1201 OFFCURVE",
"125 745 CURVE SMOOTH",
"125 261 OFFCURVE",
"397 0 OFFCURVE",
"889 0 CURVE SMOOTH"
);
},
{
closed = 1;
nodes = (
"517 158 OFFCURVE",
"319 352 OFFCURVE",
"319 739 CURVE SMOOTH",
"319 1112 OFFCURVE",
"504 1305 OFFCURVE",
"872 1305 CURVE SMOOTH",
"1112 1305 LINE",
"1112 158 LINE",
"913 158 LINE SMOOTH"
);
}
);
width = 1495;
}
);
note = uniA4F7;
unicode = A4F7;
},
{
glyphname = uniA4F8;
lastChange = "2016-11-10 14:30:34 +0000";
layers = (
{
layerId = "C510FE01-3D6B-418B-A43A-334E3CB81CFE";
paths = (
{
closed = 1;
nodes = (
"356 -29 OFFCURVE",
"404 24 OFFCURVE",
"404 111 CURVE SMOOTH",
"404 199 OFFCURVE",
"356 248 OFFCURVE",
"275 248 CURVE SMOOTH",
"195 248 OFFCURVE",
"150 199 OFFCURVE",
"150 111 CURVE SMOOTH",
"150 23 OFFCURVE",
"196 -29 OFFCURVE",
"275 -29 CURVE SMOOTH"
);
}
);
width = 554;
}
);
note = uniA4F8;
unicode = A4F8;
},
{
glyphname = uniA4F9;
lastChange = "2016-11-10 14:30:34 +0000";
layers = (
{
layerId = "C510FE01-3D6B-418B-A43A-334E3CB81CFE";
paths = (
{
closed = 1;
nodes = (
"303 -284 OFFCURVE",
"410 -112 OFFCURVE",
"410 111 CURVE SMOOTH",
"410 198 OFFCURVE",
"359 248 OFFCURVE",
"275 248 CURVE SMOOTH",
"195 248 OFFCURVE",
"150 199 OFFCURVE",
"150 111 CURVE SMOOTH",
"150 23 OFFCURVE",
"196 -29 OFFCURVE",
"275 -29 CURVE",
"290 -28 LINE",
"269 -125 OFFCURVE",
"216 -189 OFFCURVE",
"130 -220 CURVE",
"130 -315 LINE"
);
}
);
width = 554;
}
);
note = uniA4F9;
unicode = A4F9;
},
{
glyphname = uniA4FA;
lastChange = "2016-11-10 14:30:34 +0000";
layers = (
{
layerId = "C510FE01-3D6B-418B-A43A-334E3CB81CFE";
paths = (
{
closed = 1;
nodes = (
"746 -29 OFFCURVE",
"794 24 OFFCURVE",
"794 111 CURVE SMOOTH",
"794 199 OFFCURVE",
"746 248 OFFCURVE",
"665 248 CURVE SMOOTH",
"585 248 OFFCURVE",
"540 199 OFFCURVE",
"540 111 CURVE SMOOTH",
"540 23 OFFCURVE",
"586 -29 OFFCURVE",
"665 -29 CURVE SMOOTH"
);
},
{
closed = 1;
nodes = (
"356 -29 OFFCURVE",
"404 24 OFFCURVE",
"404 111 CURVE SMOOTH",
"404 199 OFFCURVE",
"356 248 OFFCURVE",
"275 248 CURVE SMOOTH",
"195 248 OFFCURVE",
"150 199 OFFCURVE",
"150 111 CURVE SMOOTH",
"150 23 OFFCURVE",
"196 -29 OFFCURVE",
"275 -29 CURVE SMOOTH"
);
}
);
width = 944;
}
);
note = uniA4FA;
unicode = A4FA;
},
{
glyphname = uniA4FB;
lastChange = "2016-11-10 14:30:34 +0000";
layers = (
{
layerId = "C510FE01-3D6B-418B-A43A-334E3CB81CFE";
paths = (
{
closed = 1;
nodes = (
"693 -284 OFFCURVE",
"800 -112 OFFCURVE",
"800 111 CURVE SMOOTH",
"800 198 OFFCURVE",
"749 248 OFFCURVE",
"665 248 CURVE SMOOTH",
"585 248 OFFCURVE",
"540 199 OFFCURVE",
"540 111 CURVE SMOOTH",
"540 23 OFFCURVE",
"586 -29 OFFCURVE",
"665 -29 CURVE",
"680 -28 LINE",
"659 -125 OFFCURVE",
"606 -189 OFFCURVE",
"520 -220 CURVE",
"520 -315 LINE"
);
},
{
closed = 1;
nodes = (
"356 -29 OFFCURVE",
"404 24 OFFCURVE",
"404 111 CURVE SMOOTH",
"404 199 OFFCURVE",
"356 248 OFFCURVE",
"275 248 CURVE SMOOTH",
"195 248 OFFCURVE",
"150 199 OFFCURVE",
"150 111 CURVE SMOOTH",
"150 23 OFFCURVE",
"196 -29 OFFCURVE",
"275 -29 CURVE SMOOTH"
);
}
);
width = 944;
}
);
note = uniA4FB;
unicode = A4FB;
},
{
glyphname = uniA4FC;
lastChange = "2016-11-10 14:30:34 +0000";
layers = (
{
layerId = "C510FE01-3D6B-418B-A43A-334E3CB81CFE";
paths = (
{
closed = 1;
nodes = (
"303 -284 OFFCURVE",
"410 -112 OFFCURVE",
"410 111 CURVE SMOOTH",
"410 198 OFFCURVE",
"359 248 OFFCURVE",
"275 248 CURVE SMOOTH",
"195 248 OFFCURVE",
"150 199 OFFCURVE",
"150 111 CURVE SMOOTH",
"150 23 OFFCURVE",
"196 -29 OFFCURVE",
"275 -29 CURVE",
"290 -28 LINE",
"269 -125 OFFCURVE",
"216 -189 OFFCURVE",
"130 -220 CURVE",
"130 -315 LINE"
);
},
{
closed = 1;
nodes = (
"356 848 OFFCURVE",
"404 899 OFFCURVE",
"404 987 CURVE SMOOTH",
"404 1080 OFFCURVE",
"361 1126 OFFCURVE",
"275 1126 CURVE SMOOTH",
"192 1126 OFFCURVE",
"150 1075 OFFCURVE",
"150 987 CURVE SMOOTH",
"150 900 OFFCURVE",
"196 848 OFFCURVE",
"275 848 CURVE SMOOTH"
);
}
);
width = 554;
}
);
note = uniA4FC;
unicode = A4FC;
},
{
glyphname = uniA4FD;
lastChange = "2016-11-10 14:30:34 +0000";
layers = (
{
layerId = "C510FE01-3D6B-418B-A43A-334E3CB81CFE";
paths = (
{
closed = 1;
nodes = (
"356 848 OFFCURVE",
"404 902 OFFCURVE",
"404 987 CURVE SMOOTH",
"404 1076 OFFCURVE",
"359 1126 OFFCURVE",
"275 1126 CURVE SMOOTH",
"192 1126 OFFCURVE",
"150 1075 OFFCURVE",
"150 987 CURVE SMOOTH",
"150 900 OFFCURVE",
"196 848 OFFCURVE",
"275 848 CURVE SMOOTH"
);
},
{
closed = 1;
nodes = (
"356 -29 OFFCURVE",
"404 24 OFFCURVE",
"404 111 CURVE SMOOTH",
"404 199 OFFCURVE",
"356 248 OFFCURVE",
"275 248 CURVE SMOOTH",
"195 248 OFFCURVE",
"150 199 OFFCURVE",
"150 111 CURVE SMOOTH",
"150 23 OFFCURVE",
"196 -29 OFFCURVE",
"275 -29 CURVE SMOOTH"
);
}
);
width = 554;
}
);
note = uniA4FD;
unicode = A4FD;
},
{
glyphname = uniA4FE;
lastChange = "2016-11-10 14:30:34 +0000";
layers = (
{
layerId = "C510FE01-3D6B-418B-A43A-334E3CB81CFE";
paths = (
{
closed = 1;
nodes = (
"818 672 LINE",
"818 847 LINE",
"150 847 LINE",
"150 672 LINE"
);
},
{
closed = 1;
nodes = (
"1098 151 OFFCURVE",
"1146 204 OFFCURVE",
"1146 291 CURVE SMOOTH",
"1146 379 OFFCURVE",
"1098 428 OFFCURVE",
"1017 428 CURVE SMOOTH",
"937 428 OFFCURVE",
"892 379 OFFCURVE",
"892 291 CURVE SMOOTH",
"892 203 OFFCURVE",
"938 151 OFFCURVE",
"1017 151 CURVE SMOOTH"
);
}
);
width = 1296;
}
);
note = uniA4FE;
unicode = A4FE;
},
{
glyphname = uniA4FF;
lastChange = "2016-11-10 14:30:34 +0000";
layers = (
{
layerId = "C510FE01-3D6B-418B-A43A-334E3CB81CFE";
paths = (
{
closed = 1;
nodes = (
"968 672 LINE",
"968 847 LINE",
"150 847 LINE",
"150 672 LINE"
);
},
{
closed = 1;
nodes = (
"968 252 LINE",
"968 427 LINE",
"150 427 LINE",
"150 252 LINE"
);
}
